# xmcd
#
# Track frame offsets:
#	150
#	10282
#	14995
#	31077
#	42434
#	50469
#	56136
#	64696
#	75859
#	88638
#	102071
#	108635
#	114908
#	121127
#	135873
#	144979
#	153628
#	161460
#	174663
#	183587
#	188720
#	199215
#	206829
#	213661
#	223371
#	235038
#	240283
#	262953
#	285840
#	290545
#	305773
#
# Disc length: 4237 seconds
#
# Revision: 0
# Processed by: cddbd v1.5.1PL0 Copyright (c) Steve Scherf et al.
# Submitted via: dBpowerAMP V4.0
#
DISCID=b9108b1f
DTITLE=¸t¸g-ÂÂ¬ù - Disc 39
DYEAR=1900
DGENRE=
TTITLE0=¸Ö½g²Ä42½g
TTITLE1=¸Ö½g²Ä43½g
TTITLE2=¸Ö½g²Ä44½g
TTITLE3=¸Ö½g²Ä45½g
TTITLE4=¸Ö½g²Ä46½g
TTITLE5=¸Ö½g²Ä47½g
TTITLE6=¸Ö½g²Ä48½g
TTITLE7=¸Ö½g²Ä49½g
TTITLE8=¸Ö½g²Ä50½g
TTITLE9=¸Ö½g²Ä51½g
TTITLE10=¸Ö½g²Ä52½g
TTITLE11=¸Ö½g²Ä53½g
TTITLE12=¸Ö½g²Ä54½g
TTITLE13=¸Ö½g²Ä55½g
TTITLE14=¸Ö½g²Ä56½g
TTITLE15=¸Ö½g²Ä57½g
TTITLE16=¸Ö½g²Ä58½g
TTITLE17=¸Ö½g²Ä59½g
TTITLE18=¸Ö½g²Ä60½g
TTITLE19=¸Ö½g²Ä61½g
TTITLE20=¸Ö½g²Ä62½g
TTITLE21=¸Ö½g²Ä63½g
TTITLE22=¸Ö½g²Ä64½g
TTITLE23=¸Ö½g²Ä65½g
TTITLE24=¸Ö½g²Ä66½g
TTITLE25=¸Ö½g²Ä67½g
TTITLE26=¸Ö½g²Ä68½g
TTITLE27=¸Ö½g²Ä69½g
TTITLE28=¸Ö½g²Ä70½g
TTITLE29=¸Ö½g²Ä71½g
TTITLE30=¸Ö½g²Ä72½g
EXTD=
EXTT0=
EXTT1=
EXTT2=
EXTT3=
EXTT4=
EXTT5=
EXTT6=
EXTT7=
EXTT8=
EXTT9=
EXTT10=
EXTT11=
EXTT12=
EXTT13=
EXTT14=
EXTT15=
EXTT16=
EXTT17=
EXTT18=
EXTT19=
EXTT20=
EXTT21=
EXTT22=
EXTT23=
EXTT24=
EXTT25=
EXTT26=
EXTT27=
EXTT28=
EXTT29=
EXTT30=
PLAYORDER=
